<?xml version="1.0" encoding="UTF-8"?>
<svg width="45px" height="45px" viewBox="0 0 45 45" version="1.1" xmlns="http://www.w3.org/2000/svg" xmlns:xlink="http://www.w3.org/1999/xlink">
    <!-- Generator: Sketch 52.1 (67048) - http://www.bohemiancoding.com/sketch -->
    <title>behance</title>
    <desc>Created with Sketch.</desc>
    <g id="behance" stroke="none" stroke-width="1" fill="none" fill-rule="evenodd">
        <g id="Group-6" fill="#fff" fill-rule="nonzero">
            <g id="icon-be" transform="translate(7.941176, 13.235294)">
                <path d="M27.0308572,2.62214405 L19.530969,2.62214405 L19.530969,0.768718226 L27.0314835,0.768718226 L27.0314835,2.62214405 L27.0308572,2.62214405 Z M14.5381185,10.2224362 C15.0220451,10.9681683 15.2638692,11.873626 15.2638692,12.936663 C15.2638692,14.0359792 14.9912168,15.0221651 14.4365175,15.8932822 C14.0836283,16.4697343 13.6454917,16.9566654 13.1190458,17.348675 C12.5261417,17.8020269 11.8241907,18.1128929 11.0172288,18.2789881 C10.2076921,18.4453603 9.33148847,18.5294118 8.38764369,18.5294118 L0,18.5294118 L0,0 L8.99446567,0 C11.2616277,0.0366946465 12.8689405,0.69020553 13.8180741,1.9736181 C14.387596,2.76075288 14.6697821,3.70525924 14.6697821,4.80312152 C14.6697821,5.93594757 14.3841861,6.84237457 13.809097,7.53105692 C13.4891933,7.91718153 13.0166098,8.26841161 12.3909986,8.58543951 C13.3386012,8.93057689 14.0576018,9.47407307 14.5381185,10.2224362 Z M4.295214,7.30521176 L8.23621655,7.30521176 C9.04610121,7.30521176 9.70080088,7.15206354 10.2050477,6.84590556 C10.7089465,6.54023223 10.960374,5.99687453 10.960374,5.2167325 C10.960374,4.35482371 10.627457,3.7827334 9.96002243,3.50738509 C9.38632514,3.31608828 8.65229323,3.21756661 7.76161496,3.21756661 L4.295214,3.21756661 L4.295214,7.30521176 Z M11.3398465,12.6719769 C11.3398465,11.7094694 10.944438,11.0440501 10.1552215,10.6870042 C9.71388374,10.4840759 9.09119532,10.3803616 8.29279296,10.3729534 L4.295214,10.3729534 L4.295214,15.3109451 L8.23092774,15.3109451 C9.03949019,15.3109451 9.66531015,15.2056384 10.1169471,14.9859551 C10.9314247,14.5820371 11.3398465,13.8133189 11.3398465,12.6719769 Z M29.8135396,9.65754631 C29.9041453,10.2637696 29.9451336,11.1433333 29.9285017,12.2929835 L20.2153139,12.2929835 C20.2688979,13.6268685 20.7317388,14.5596741 21.609543,15.0934774 C22.1389117,15.4282295 22.7807373,15.5916938 23.5323058,15.5916938 C24.324793,15.5916938 24.9707244,15.3923657 25.4679426,14.9826319 C25.7388552,14.7654411 25.9778262,14.4588677 26.1844379,14.0720507 L29.7446458,14.0720507 C29.6513956,14.8598779 29.2227232,15.6589211 28.4523655,16.4709113 C27.2588329,17.7615244 25.5849229,18.4086656 23.4351586,18.4086656 C21.65923,18.4086656 20.0940886,17.8628847 18.735559,16.7752692 C17.3815526,15.6838458 16.7015223,13.9137791 16.7015223,11.4583534 C16.7015223,9.15579894 17.3120326,7.39341738 18.5371588,6.16670843 C19.7668084,4.93771471 21.3537314,4.32602188 23.3098276,4.32602188 C24.4692612,4.32602188 25.5144285,4.53220425 26.4468606,4.94671529 C27.3763699,5.36164173 28.1445703,6.01466797 28.749583,6.91216363 C29.2971146,7.70255247 29.6492383,8.61645687 29.8135396,9.65754631 Z M26.3092122,10.0033068 C26.2439371,9.08095571 25.9344022,8.38285737 25.3770585,7.90575773 C24.8243077,7.42734262 24.1337693,7.18716578 23.3098276,7.18716578 C22.413095,7.18716578 21.7206777,7.44388983 21.2286787,7.94847584 C20.7333394,8.45202332 20.4251267,9.1366208 20.2988215,10.003376 L26.3092122,10.003376 L26.3092122,10.0033068 Z" id="Behance"></path>
            </g>
        </g>
    </g>
</svg>