<?xml version="1.0" encoding="UTF-8"?>
<svg width="45px" height="45px" viewBox="0 0 45 45" version="1.1" xmlns="http://www.w3.org/2000/svg" xmlns:xlink="http://www.w3.org/1999/xlink">
    <!-- Generator: Sketch 52.1 (67048) - http://www.bohemiancoding.com/sketch -->
    <title>ig</title>
    <desc>Created with Sketch.</desc>
    <g id="ig" stroke="none" stroke-width="1" fill="none" fill-rule="evenodd">
        <g id="Group-5" fill="#fff">
            <g id="icon-ig" transform="translate(10.588235, 10.588235)">
                <path d="M11.4780372,0.177281804 C8.39671186,0.177281804 8.01034145,0.190311174 6.80024862,0.24539396 C5.59258778,0.300341959 4.76787454,0.491693985 4.04616039,0.771466012 C3.30008134,1.06071803 2.66735983,1.44773525 2.03661994,2.07696397 C1.40588006,2.70623762 1.01793336,3.33744321 0.727986673,4.08173475 C0.447497702,4.80167485 0.255731158,5.62445711 0.200606158,6.82917963 C0.145391085,8.03641817 0.132330423,8.42186288 0.132330423,11.4958058 C0.132330423,14.5697038 0.145391085,14.9551485 0.200606158,16.1623871 C0.255731158,17.3671096 0.447497702,18.1898918 0.727986673,18.9098319 C1.01793336,19.6541235 1.40588006,20.2853291 2.03661994,20.9146027 C2.66735983,21.5438314 3.30008134,21.9308487 4.04616039,22.2201007 C4.76787454,22.4998727 5.59258778,22.6912247 6.80024862,22.7461727 C8.01034145,22.8013004 8.39671186,22.8142849 11.4780372,22.8142849 C14.5593626,22.8142849 14.945688,22.8013004 16.1558258,22.7461727 C17.3634867,22.6912247 18.1881999,22.4998727 18.9099141,22.2201007 C19.6559931,21.9308487 20.2887146,21.5438314 20.9194545,20.9146027 C21.5501944,20.2853291 21.9381411,19.6541235 22.2280878,18.9098319 C22.5085767,18.1898918 22.7003433,17.3671096 22.7554683,16.1623871 C22.8106834,14.9551485 22.823699,14.5697038 22.823699,11.4958058 C22.823699,8.42186288 22.8106834,8.03641817 22.7554683,6.82917963 C22.7003433,5.62445711 22.5085767,4.80167485 22.2280878,4.08173475 C21.9381411,3.33744321 21.5501944,2.70623762 20.9194545,2.07696397 C20.2887146,1.44773525 19.6559931,1.06071803 18.9099141,0.771466012 C18.1881999,0.491693985 17.3634867,0.300341959 16.1558258,0.24539396 C14.945688,0.190311174 14.5593626,0.177281804 11.4780372,0.177281804 M11.4780372,2.21664781 C14.5074802,2.21664781 14.8662881,2.22819453 16.0626448,2.28264831 C17.1688378,2.33296863 17.7695832,2.51735669 18.1694196,2.67236126 C18.6989619,2.87768616 19.0769554,3.12295282 19.4739545,3.51904568 C19.8709536,3.9150936 20.1168543,4.29213662 20.3226273,4.82045511 C20.4780041,5.21928863 20.662835,5.81859473 20.7133212,6.92213745 C20.7679058,8.11562776 20.7794352,8.47362093 20.7794352,11.4958058 C20.7794352,14.5179458 20.7679058,14.8759389 20.7133212,16.0694292 C20.662835,17.172972 20.4780041,17.7722781 20.3226273,18.1711116 C20.1168543,18.6994301 19.8709536,19.0764731 19.4739545,19.472521 C19.0769554,19.8686139 18.6989619,20.1138805 18.1694196,20.3192054 C17.7695832,20.47421 17.1688378,20.6585981 16.0626448,20.7089184 C14.8664683,20.7633722 14.5076604,20.7749189 11.4780372,20.7749189 C8.44841406,20.7749189 8.08960616,20.7633722 6.89342969,20.7089184 C5.78723667,20.6585981 5.18644623,20.47421 4.78665487,20.3192054 C4.25711259,20.1138805 3.87911903,19.8686139 3.48211994,19.472521 C3.08512086,19.0764731 2.83922013,18.6994301 2.63340211,18.1711116 C2.47807031,17.7722781 2.29323943,17.172972 2.24275322,16.0694292 C2.18816866,14.8759389 2.17663925,14.5179458 2.17663925,11.4958058 C2.17663925,8.47362093 2.18816866,8.11562776 2.24275322,6.92213745 C2.29323943,5.81859473 2.47807031,5.21928863 2.63340211,4.82045511 C2.83922013,4.29213662 3.08512086,3.9150936 3.48211994,3.51904568 C3.87911903,3.12295282 4.25711259,2.87768616 4.78665487,2.67236126 C5.18644623,2.51735669 5.78723667,2.33296863 6.89338465,2.28264831 C8.08978631,2.22819453 8.44859421,2.21664781 11.4780372,2.21664781" id="Fill-1"></path>
                <path d="M11.4780372,15.2686172 C9.38936719,15.2686172 7.69611994,13.5794717 7.69611994,11.4958058 C7.69611994,9.41209502 9.38936719,7.7229495 11.4780372,7.7229495 C13.5667073,7.7229495 15.2599095,9.41209502 15.2599095,11.4958058 C15.2599095,13.5794717 13.5667073,15.2686172 11.4780372,15.2686172 M11.4780372,5.68358349 C8.26034053,5.68358349 5.65185616,8.28577336 5.65185616,11.4958058 C5.65185616,14.7057933 8.26034053,17.3079832 11.4780372,17.3079832 C14.6957339,17.3079832 17.3042183,14.7057933 17.3042183,11.4958058 C17.3042183,8.28577336 14.6957339,5.68358349 11.4780372,5.68358349" id="Fill-4"></path>
                <path d="M18.8958761,5.4539386 C18.8958761,6.20407089 18.2863035,6.81213811 17.5344147,6.81213811 C16.7824809,6.81213811 16.1729083,6.20407089 16.1729083,5.4539386 C16.1729083,4.70380631 16.7824809,4.09573908 17.5344147,4.09573908 C18.2863035,4.09573908 18.8958761,4.70380631 18.8958761,5.4539386" id="Fill-6"></path>
            </g>
        </g>
    </g>
</svg>